<svg width="640" height="640" xmlns="http://www.w3.org/2000/svg">
 <!--!Font Awesome Free 7.0.0 by @fontawesome - https://fontawesome.com License - https://fontawesome.com/license/free Copyright 2025 Fonticons, Inc.-->

 <g>
  <title>Layer 1</title>
  <g>
   <g class="layer">
    <title>Layer 1</title>
    <path id="svg_4" fill="#0f172a" d="m319.99997,63.99994c-141.22665,0 -255.99997,114.77332 -255.99997,255.99997s114.77332,255.99997 255.99997,255.99997s255.99997,-114.77332 255.99997,-255.99997s-114.77332,-255.99997 -255.99997,-255.99997zm120.74665,353.91996l-11.09333,12.8c-11.73333,11.73333 -27.09333,17.28 -42.66666,17.28c-79.14666,0 -194.98665,-109.65332 -194.98665,-194.98665c0,-15.57333 5.54667,-30.93333 17.28,-42.66666l12.8,-11.30667c9.6,-9.38667 24.96,-9.38667 34.56,0l21.33333,27.94666c9.38667,9.38667 9.38667,24.96 0,34.34666l-18.13333,22.82666c19.2,47.99999 51.83999,79.14666 95.99999,95.99999l22.82666,-18.13333c9.38667,-9.6 24.96,-9.6 34.34666,0l27.73333,21.33333c9.6,9.6 9.6,24.96 0,34.56z"/>
   </g>
  </g>
 </g>
</svg>